<svg xmlns="http://www.w3.org/2000/svg" width="200.413" height="60.124" viewBox="0 0 200.413 60.124">
    <defs>
        <style>
            .cls-1{fill:#6f6f6f}.cls-2{fill:#fff}
        </style>
    </defs>
    <g id="Group_2815" transform="translate(-50 -449)">
        <g id="Group_2809" transform="translate(50 449)">
            <path id="Path_1840" d="M236.273 449H62.522c-.454 0-.9.012-1.363.019a19.631 19.631 0 0 0-2.973.263 9.878 9.878 0 0 0-2.821.93 9.548 9.548 0 0 0-2.4 1.749 9.28 9.28 0 0 0-1.748 2.4 9.8 9.8 0 0 0-.928 2.824 19.288 19.288 0 0 0-.266 2.97c-.014.455-.015.911-.022 1.366V496.6c.007.461.009.907.022 1.368a19.279 19.279 0 0 0 .266 2.97 9.782 9.782 0 0 0 .928 2.826 9.2 9.2 0 0 0 1.748 2.395 9.308 9.308 0 0 0 2.4 1.749 9.944 9.944 0 0 0 2.821.936 19.954 19.954 0 0 0 2.973.262c.459.01.909.016 1.363.016h175.359c.452 0 .916-.006 1.368-.016a19.694 19.694 0 0 0 2.967-.262 10.1 10.1 0 0 0 2.831-.936 9.309 9.309 0 0 0 2.4-1.749 9.479 9.479 0 0 0 1.753-2.395 9.8 9.8 0 0 0 .919-2.826 20.071 20.071 0 0 0 .275-2.97c.006-.461.006-.907.006-1.368.012-.539.012-1.075.012-1.623v-31.828c0-.543 0-1.082-.012-1.62 0-.455 0-.911-.006-1.366a20.081 20.081 0 0 0-.275-2.97 9.819 9.819 0 0 0-.919-2.824 9.6 9.6 0 0 0-4.153-4.154 10.029 10.029 0 0 0-2.831-.93 19.378 19.378 0 0 0-2.967-.263c-.452-.007-.916-.016-1.368-.019h-1.608z" class="cls-1" transform="translate(-50 -449)"/>
            <path id="Path_1841" d="M64.466 509.766c-.452 0-.893-.006-1.342-.016a18.822 18.822 0 0 1-2.773-.242 8.722 8.722 0 0 1-2.458-.813 8.01 8.01 0 0 1-2.073-1.508 7.886 7.886 0 0 1-1.514-2.072 8.5 8.5 0 0 1-.806-2.459 18.412 18.412 0 0 1-.247-2.782c-.009-.313-.022-1.355-.022-1.355V463.47s.013-1.026.022-1.327a18.331 18.331 0 0 1 .246-2.778 8.548 8.548 0 0 1 .806-2.466 7.97 7.97 0 0 1 1.506-2.074 8.258 8.258 0 0 1 2.081-1.517 8.65 8.65 0 0 1 2.453-.807 18.718 18.718 0 0 1 2.783-.243l1.339-.018h175.344l1.355.019a18.368 18.368 0 0 1 2.757.241 8.807 8.807 0 0 1 2.479.813 8.293 8.293 0 0 1 3.583 3.591 8.552 8.552 0 0 1 .794 2.447 19.254 19.254 0 0 1 .258 2.8v1.321c.012.557.012 1.086.012 1.62v31.827c0 .539 0 1.065-.012 1.6 0 .482 0 .924-.006 1.379a18.9 18.9 0 0 1-.254 2.75 8.515 8.515 0 0 1-.8 2.478 8.118 8.118 0 0 1-1.507 2.056 8.025 8.025 0 0 1-2.076 1.517 8.7 8.7 0 0 1-2.475.816 18.608 18.608 0 0 1-2.773.242c-.434.01-.89.016-1.332.016h-1.609z" class="cls-1" transform="translate(-51.937 -450.941)"/>
        </g>
        <g id="Group_2812" transform="translate(112.328 460.974)">
            <g id="Group_2810" transform="translate(.849)">
                <path id="Path_1842" d="M211.594 492.585l-1.74 5.268h-2.237l5.691-16.749h2.609l5.715 16.749h-2.311l-1.789-5.268zm5.492-1.69l-1.64-4.821c-.373-1.093-.621-2.087-.87-3.056h-.049c-.249.994-.522 2.013-.845 3.031l-1.64 4.846z" class="cls-2" transform="translate(-207.618 -480.21)"/>
                <path id="Path_1843" d="M246.592 496.4c0-1.541-.05-2.783-.1-3.926h1.963l.1 2.062h.05a4.729 4.729 0 0 1 4.274-2.336c2.907 0 5.094 2.46 5.094 6.113 0 4.324-2.634 6.461-5.467 6.461a4.218 4.218 0 0 1-3.7-1.888h-.05v6.535h-2.162zm2.162 3.206a4.92 4.92 0 0 0 .1.894 3.374 3.374 0 0 0 3.28 2.56c2.311 0 3.653-1.889 3.653-4.647 0-2.41-1.267-4.473-3.578-4.473a3.49 3.49 0 0 0-3.305 2.709 3.544 3.544 0 0 0-.149.894z" class="cls-2" transform="translate(-230.911 -486.859)"/>
                <path id="Path_1844" d="M279.141 496.4c0-1.541-.05-2.783-.1-3.926H281l.1 2.062h.05a4.728 4.728 0 0 1 4.274-2.336c2.908 0 5.094 2.46 5.094 6.113 0 4.324-2.634 6.461-5.467 6.461a4.216 4.216 0 0 1-3.7-1.888h-.05v6.535h-2.162zm2.162 3.206a4.916 4.916 0 0 0 .1.894 3.374 3.374 0 0 0 3.28 2.56c2.311 0 3.653-1.889 3.653-4.647 0-2.41-1.267-4.473-3.579-4.473a3.489 3.489 0 0 0-3.3 2.709 3.544 3.544 0 0 0-.149.894z" class="cls-2" transform="translate(-250.413 -486.859)"/>
                <path id="Path_1845" d="M324.4 496.848a15.6 15.6 0 0 1-5.144.919 7.866 7.866 0 0 1-8.6-8.449c.025-5 3.454-8.648 9.07-8.648a10.355 10.355 0 0 1 4.175.77l-.522 1.764a8.678 8.678 0 0 0-3.7-.721c-4.075 0-6.734 2.535-6.734 6.735 0 4.25 2.56 6.759 6.461 6.759a7.05 7.05 0 0 0 2.883-.447v-5h-3.4v-1.73h5.511z" class="cls-2" transform="translate(-269.358 -479.95)"/>
                <path id="Path_1846" d="M357.138 504.5l-.174-1.516h-.075a4.479 4.479 0 0 1-3.678 1.789 3.426 3.426 0 0 1-3.678-3.454c0-2.908 2.584-4.5 7.231-4.473v-.246a2.479 2.479 0 0 0-2.733-2.783 6 6 0 0 0-3.131.895l-.5-1.441a7.464 7.464 0 0 1 3.951-1.069c3.678 0 4.572 2.51 4.572 4.921v4.5a16.935 16.935 0 0 0 .2 2.883zm-.323-6.138c-2.386-.05-5.094.373-5.094 2.709a1.935 1.935 0 0 0 2.063 2.088 2.992 2.992 0 0 0 2.907-2.013 2.283 2.283 0 0 0 .124-.7z" class="cls-2" transform="translate(-292.651 -486.859)"/>
                <path id="Path_1847" d="M378.487 478.873h2.187v17.644h-2.187z" class="cls-2" transform="translate(-309.998 -478.873)"/>
                <path id="Path_1848" d="M393.119 478.873h2.187v17.644h-2.187z" class="cls-2" transform="translate(-318.765 -478.873)"/>
                <path id="Path_1849" d="M406.056 498.887a3.853 3.853 0 0 0 4.125 4.175 7.907 7.907 0 0 0 3.33-.621l.373 1.565a9.733 9.733 0 0 1-4 .746c-3.7 0-5.915-2.435-5.915-6.063s2.137-6.486 5.641-6.486c3.926 0 4.97 3.454 4.97 5.666a8.355 8.355 0 0 1-.074 1.019zm6.411-1.566c.025-1.392-.572-3.554-3.032-3.554-2.211 0-3.181 2.037-3.354 3.554z" class="cls-2" transform="translate(-325.267 -486.859)"/>
                <path id="Path_1850" d="M435.439 496.228c0-1.417-.025-2.634-.1-3.752h1.914l.075 2.36h.1a3.608 3.608 0 0 1 3.33-2.634 2.361 2.361 0 0 1 .621.075v2.062a3.28 3.28 0 0 0-.745-.075 3.068 3.068 0 0 0-2.933 2.808 6.157 6.157 0 0 0-.1 1.019v6.409h-2.162z" class="cls-2" transform="translate(-344.063 -486.859)"/>
                <path id="Path_1851" d="M458 492.885l2.634 7.107c.273.8.571 1.74.77 2.46h.05c.224-.721.472-1.64.77-2.51l2.386-7.057h2.311l-3.28 8.573c-1.566 4.125-2.635 6.237-4.125 7.529a5.922 5.922 0 0 1-2.684 1.417l-.547-1.839a5.791 5.791 0 0 0 1.915-1.065 6.633 6.633 0 0 0 1.839-2.435 1.57 1.57 0 0 0 .174-.522 1.9 1.9 0 0 0-.149-.572l-4.448-11.083z" class="cls-2" transform="translate(-356.21 -487.269)"/>
            </g>
            <g id="Group_2811" transform="translate(0 26.037)">
                <path id="Path_1852" d="M206.616 548.567v8.645H205.5v-8.645z" class="cls-2" transform="translate(-205.5 -546.669)"/>
                <path id="Path_1853" d="M213.148 548.567h1.116v7.708h3.694v.936h-4.81z" class="cls-2" transform="translate(-210.082 -546.669)"/>
                <path id="Path_1854" d="M232.727 553.158h-3.36v3.117h3.745v.936h-4.861v-8.645h4.669v.936h-3.553v2.732h3.36z" class="cls-2" transform="translate(-219.132 -546.669)"/>
                <path id="Path_1855" d="M250.779 548.567h1.116v4.169h.038c.231-.333.462-.641.679-.923l2.642-3.245h1.385l-3.129 3.668 3.373 4.976h-1.321l-2.847-4.245-.821.949v3.3h-1.116z" class="cls-2" transform="translate(-232.63 -546.669)"/>
                <path id="Path_1856" d="M272.6 553.158h-3.36v3.117h3.745v.936h-4.861v-8.645h4.668v.936h-3.552v2.732h3.36z" class="cls-2" transform="translate(-243.022 -546.669)"/>
                <path id="Path_1857" d="M287.357 549.55a3.444 3.444 0 0 0-1.642-.41c-1.18 0-1.629.705-1.629 1.3 0 .808.526 1.206 1.719 1.667 1.462.564 2.206 1.269 2.206 2.539a2.426 2.426 0 0 1-2.244 2.424l-.346.577a1.006 1.006 0 0 1 .9.962c0 .744-.654 1.039-1.308 1.039a2.049 2.049 0 0 1-.923-.218l.192-.578a1.507 1.507 0 0 0 .706.167c.295 0 .539-.115.539-.385 0-.346-.4-.487-1-.552l.513-.949h-.051a4.468 4.468 0 0 1-2.206-.552l.282-.936a3.955 3.955 0 0 0 2 .564c1.142 0 1.809-.6 1.809-1.475 0-.808-.462-1.269-1.629-1.718-1.411-.5-2.283-1.232-2.283-2.45 0-1.347 1.116-2.347 2.8-2.347a3.933 3.933 0 0 1 1.911.423z" class="cls-2" transform="translate(-251.803 -546.459)"/>
                <path id="Path_1858" d="M299.643 548.567h4.657v.936h-3.54v2.873h3.271v.924h-3.271v3.912h-1.115z" class="cls-2" transform="translate(-261.908 -546.669)"/>
                <path id="Path_1859" d="M319.7 553.158h-3.36v3.117h3.745v.936h-4.861v-8.645h4.668v.936h-3.552v2.732h3.36z" class="cls-2" transform="translate(-271.245 -546.669)"/>
                <path id="Path_1860" d="M330.97 548.587a16.044 16.044 0 0 1 2.373-.18 4.95 4.95 0 0 1 3.5 1.077 3.982 3.982 0 0 1 1.219 3.1 4.572 4.572 0 0 1-1.244 3.36 5.326 5.326 0 0 1-3.818 1.249 18 18 0 0 1-2.026-.1zm1.116 7.644a7.045 7.045 0 0 0 1.128.064 3.323 3.323 0 0 0 3.681-3.668c.013-2.039-1.142-3.335-3.5-3.335a6.333 6.333 0 0 0-1.308.115z" class="cls-2" transform="translate(-280.678 -546.573)"/>
                <path id="Path_1861" d="M352.121 544.473a.652.652 0 0 1 .642-.641.638.638 0 0 1 .615.641.629.629 0 1 1-1.257 0zm1.18 1.257v8.645h-1.116v-8.645z" class="cls-2" transform="translate(-293.352 -543.832)"/>
                <path id="Path_1862" d="M359.929 557.212v-8.645h1.219l2.77 4.374a24.462 24.462 0 0 1 1.552 2.809l.025-.013c-.1-1.154-.128-2.206-.128-3.552v-3.617h1.052v8.645h-1.129l-2.745-4.387a27.385 27.385 0 0 1-1.616-2.886l-.038.013c.064 1.09.09 2.129.09 3.565v3.694z" class="cls-2" transform="translate(-298.03 -546.669)"/>
            </g>
        </g>
        <g id="Group_2814" transform="translate(63.131 460.023)">
            <path id="形状_1_拷贝_25" d="M10.713 0C2.869 0 0 2.869 0 10.713v16.652c0 7.844 2.869 10.713 10.713 10.713H27.36c7.844 0 10.718-2.869 10.718-10.713V10.713C38.078 2.869 35.209 0 27.365 0z" class="cls-2"/>
            <g id="Group_2813" transform="translate(4.25 6.366)">
                <path id="Path_1864" d="M96.653 524.008h1.01v4.979h-1.01v-2.022h-2.281v2.022h-1.01v-4.979h1.01v2.009h2.281zm5.69 2.85c0 .809-.4 1.242-1.132 1.242s-1.138-.445-1.138-1.277v-2.812h-1.01v2.847a1.975 1.975 0 0 0 2.134 2.2 2 2 0 0 0 2.155-2.245v-2.808h-1.01zm11.674.574l-1.13-3.424h-.824l-1.13 3.424-1.1-3.421h-1.075l1.736 4.976h.836l1.132-3.269 1.132 3.269h.844l1.731-4.976h-1.047zm3.961-.588h1.837v-.906h-1.837v-1.019h2.667v-.908h-3.664v4.972h3.76v-.907h-2.763zm3.967 2.136h1v-4.972h-1zm-16.6-1.033l-.453 1.037h-1.031l2.193-4.976h.891l2.185 4.976h-1.059l-.447-1.037zm.376-.9h1.527l-.766-1.782z" class="cls-1" transform="translate(-93.362 -511.331)"/>
                <path id="Path_1865" d="M120.785 498.719a6.345 6.345 0 0 1-6.338-6.338h.9a5.443 5.443 0 1 0 10.886 0h.9a6.346 6.346 0 0 1-6.348 6.338z" class="cls-1" transform="translate(-105.996 -492.381)"/>
            </g>
        </g>
    </g>
</svg>
