<svg xmlns="http://www.w3.org/2000/svg" width="200.913" height="59.354" viewBox="0 0 200.913 59.354"><path d="M201.913,54.418a5.953,5.953,0,0,1-5.935,5.935H6.935A5.953,5.953,0,0,1,1,54.418V6.935A5.953,5.953,0,0,1,6.935,1H195.829a5.953,5.953,0,0,1,5.935,5.935l.148,47.483Z" transform="translate(-1 -1)" fill="#6f6f6f"/><path d="M38.076,27.67a8.841,8.841,0,0,1,4.3-7.568A9.342,9.342,0,0,0,35.108,16.1c-3.116-.3-6.084,1.781-7.568,1.781S23.534,16.1,21.011,16.1a9.516,9.516,0,0,0-8.161,5.045c-3.561,6.084-.89,15.135,2.523,20.032,1.632,2.374,3.71,5.045,6.232,5.045s3.413-1.632,6.529-1.632,3.858,1.632,6.529,1.484S39.114,43.7,40.6,41.322a25.052,25.052,0,0,0,2.819-5.639A8.716,8.716,0,0,1,38.076,27.67Zm-4.9-14.69A8.972,8.972,0,0,0,35.256,6.6a9.52,9.52,0,0,0-5.787,2.968,8.259,8.259,0,0,0-2.077,6.084A6.951,6.951,0,0,0,33.179,12.98Zm36.8,13.206H67.456L66.12,22.032h-4.6l-1.335,4.155H57.811l4.6-14.393H65.23Zm-4.155-5.935-1.187-3.71c-.148-.445-.3-1.335-.742-2.671a19.555,19.555,0,0,1-.742,2.671l-1.187,3.71Zm15.877.742a6.22,6.22,0,0,1-1.484,4.155A4.041,4.041,0,0,1,77.1,26.483,3.014,3.014,0,0,1,74.133,25v5.49H71.759V19.361a27.427,27.427,0,0,0-.148-3.413h2.077l.148,1.632a4.057,4.057,0,0,1,5.639-1.187,3.934,3.934,0,0,1,.89.742A5.811,5.811,0,0,1,81.7,20.993Zm-2.374,0a3.884,3.884,0,0,0-.742-2.523,2.035,2.035,0,0,0-1.929-.89,1.905,1.905,0,0,0-1.484.594,3.079,3.079,0,0,0-.89,1.484c0,.3-.148.445-.148.742v1.632a2.982,2.982,0,0,0,.594,1.929,2.457,2.457,0,0,0,1.781.742,2.407,2.407,0,0,0,2.077-1.039A5.124,5.124,0,0,0,79.326,20.993Zm14.393,0a6.22,6.22,0,0,1-1.484,4.155,4.041,4.041,0,0,1-3.116,1.335A3.014,3.014,0,0,1,86.152,25v5.49H83.926V19.361a27.427,27.427,0,0,0-.148-3.413h2.077L86,17.58a4.057,4.057,0,0,1,5.639-1.187,3.934,3.934,0,0,1,.89.742A6.614,6.614,0,0,1,93.72,20.993Zm-2.374,0a3.884,3.884,0,0,0-.742-2.523,2.035,2.035,0,0,0-1.929-.89,1.905,1.905,0,0,0-1.484.594,3.079,3.079,0,0,0-.89,1.484c0,.3-.148.445-.148.742v1.632a3.125,3.125,0,0,0,.742,1.929,2.457,2.457,0,0,0,1.781.742,2.407,2.407,0,0,0,2.077-1.039A5.082,5.082,0,0,0,91.346,20.993Zm17.806,1.187a3.736,3.736,0,0,1-1.335,2.968,6.1,6.1,0,0,1-3.858,1.335,8.045,8.045,0,0,1-3.71-.89l.594-1.929a6.765,6.765,0,0,0,3.264.89,3.407,3.407,0,0,0,2.077-.594,2.126,2.126,0,0,0,.742-1.632,1.905,1.905,0,0,0-.594-1.484,8.413,8.413,0,0,0-1.929-1.187c-2.523-.89-3.71-2.374-3.71-4.155a3.736,3.736,0,0,1,1.335-2.968A5.067,5.067,0,0,1,105.59,11.5a6.222,6.222,0,0,1,3.264.742l-.594,1.929a4.41,4.41,0,0,0-2.671-.594,2.982,2.982,0,0,0-1.929.594,1.8,1.8,0,0,0,0,2.671,9.461,9.461,0,0,0,2.077,1.187,5.338,5.338,0,0,1,2.671,1.781A4.105,4.105,0,0,1,109.152,22.18Zm7.419-4.6h-2.523v5.045c0,1.335.445,1.929,1.335,1.929a2.525,2.525,0,0,0,1.039-.148v1.781a5.334,5.334,0,0,1-1.632.3,2.694,2.694,0,0,1-2.077-.89,4.566,4.566,0,0,1-.89-2.819V17.58h-1.484V15.948h1.484V14.019l2.226-.742V15.8h2.523ZM128,20.993a5.811,5.811,0,0,1-1.335,3.858,5.388,5.388,0,0,1-3.858,1.632A4.6,4.6,0,0,1,119.242,25a5.139,5.139,0,0,1-1.335-3.858,5.85,5.85,0,0,1,1.484-4.006,4.612,4.612,0,0,1,3.71-1.484,5.151,5.151,0,0,1,3.71,1.484A7.355,7.355,0,0,1,128,20.993Zm-2.523.148a4.354,4.354,0,0,0-.594-2.374A2.368,2.368,0,0,0,122.8,17.58a2.205,2.205,0,0,0-2.077,1.187,4.877,4.877,0,0,0-.594,2.523,4.354,4.354,0,0,0,.594,2.374,2.307,2.307,0,0,0,3.116,1.039,2.338,2.338,0,0,0,1.039-1.039,4.193,4.193,0,0,0,.594-2.523Zm10.09-3.264h-.742a2.393,2.393,0,0,0-1.929.89,3.407,3.407,0,0,0-.594,2.077v5.49h-2.226V19.213a22.973,22.973,0,0,0-.148-3.264h1.929L132,17.877a3.213,3.213,0,0,1,2.819-2.226h.594Zm10.09,2.671a2.526,2.526,0,0,1-.148,1.039H138.68a2.952,2.952,0,0,0,1.039,2.374,4,4,0,0,0,2.226.742,9.317,9.317,0,0,0,2.819-.445l.3,1.632a8.706,8.706,0,0,1-3.413.594A5.255,5.255,0,0,1,137.79,25a5.139,5.139,0,0,1-1.335-3.858,6.1,6.1,0,0,1,1.335-3.858A4.27,4.27,0,0,1,141.5,15.8a3.844,3.844,0,0,1,3.413,1.632A4.472,4.472,0,0,1,145.654,20.548Zm-2.077-.594a3.951,3.951,0,0,0-.445-1.781,1.807,1.807,0,0,0-1.781-.89,1.943,1.943,0,0,0-1.781.89,3.808,3.808,0,0,0-.742,1.781Zm6.677-8.458a20.461,20.461,0,0,1-2.226,5.342l-1.484.148a29.606,29.606,0,0,0,1.335-5.193Zm9.348,14.69h-2.077l-.148-1.632a3.286,3.286,0,0,1-3.413,1.929A4.176,4.176,0,0,1,150.848,25a5.042,5.042,0,0,1-1.187-3.858A5.488,5.488,0,0,1,151,17.135a4.252,4.252,0,0,1,3.264-1.484,3.186,3.186,0,0,1,2.968,1.335V11.052H159.6V23.516a15.944,15.944,0,0,0,0,2.671Zm-2.374-4.3V19.361a2.161,2.161,0,0,0-.89-1.335,2.636,2.636,0,0,0-1.484-.594,2.407,2.407,0,0,0-2.077,1.039,5.124,5.124,0,0,0-.742,2.671,3.884,3.884,0,0,0,.742,2.523,2.536,2.536,0,0,0,1.929,1.039,2.115,2.115,0,0,0,1.781-.89A2.457,2.457,0,0,0,157.228,21.884Zm12.909,4.3H168.06L167.912,25a3.873,3.873,0,0,1-2.968,1.484,3.37,3.37,0,0,1-2.374-.89,2.93,2.93,0,0,1-.89-2.077,3.014,3.014,0,0,1,1.484-2.968,9.352,9.352,0,0,1,4.452-1.039v-.148a1.877,1.877,0,0,0-2.077-2.077,5.554,5.554,0,0,0-2.671.742l-.445-1.484a7.457,7.457,0,0,1,3.561-.89c2.671,0,4.006,1.484,4.006,4.3v3.858A12.763,12.763,0,0,0,170.138,26.187Zm-2.374-3.413V21.142c-2.523,0-3.858.742-3.858,2.077a1.532,1.532,0,0,0,1.632,1.632,2.071,2.071,0,0,0,1.335-.445,1.513,1.513,0,0,0,.742-1.187A1.149,1.149,0,0,0,167.764,22.774Zm14.1,3.413h-2.374V20.251c0-1.781-.742-2.671-2.077-2.819a2.383,2.383,0,0,0-1.632.742,2.59,2.59,0,0,0-.594,1.781v6.084h-2.374V18.619a20.9,20.9,0,0,0-.148-2.968h2.077l.148,1.632a4.516,4.516,0,0,1,1.187-1.187,3.407,3.407,0,0,1,2.077-.594,3.37,3.37,0,0,1,2.374.89,4.237,4.237,0,0,1,1.187,3.413l.148,6.38ZM61.372,33.012a.771.771,0,0,1-.3.594.742.742,0,0,1-1.187,0,.9.9,0,0,1,0-1.187.742.742,0,0,1,1.187,0A1.125,1.125,0,0,1,61.372,33.012Zm0,11.722H59.74V34.5h1.632V44.735Zm9.348,0H69.088V40.58c0-1.335-.445-1.929-1.484-1.929a1.35,1.35,0,0,0-1.187.594,1.814,1.814,0,0,0-.445,1.335v4.3H64.34V37.612h1.484V38.8A2.873,2.873,0,0,1,68.2,37.464a3.083,3.083,0,0,1,1.781.742,3.37,3.37,0,0,1,.89,2.374Zm9.348,0H78.584V43.548a2.517,2.517,0,0,1-2.374,1.335,3.156,3.156,0,0,1-2.226-1.039,4.445,4.445,0,0,1-.89-2.671,4.566,4.566,0,0,1,.89-2.819,3.156,3.156,0,0,1,2.226-1.039,1.993,1.993,0,0,1,2.077,1.039V34.2H79.92v8.755A6.651,6.651,0,0,1,80.068,44.735Zm-1.632-3.116V39.838a2.392,2.392,0,0,0-.594-1.039,1.6,1.6,0,0,0-1.039-.445,1.826,1.826,0,0,0-1.484.742,2.676,2.676,0,0,0-.445,1.781,3.951,3.951,0,0,0,.445,1.781A1.826,1.826,0,0,0,76.8,43.4a1.611,1.611,0,0,0,1.335-.594A2.8,2.8,0,0,0,78.436,41.619Zm6.381-6.38a1.014,1.014,0,0,1-1.039,1.039c-.3,0-.445-.148-.742-.3a1.133,1.133,0,0,1-.3-.742c0-.3.148-.445.3-.742a.991.991,0,0,1,1.484,0A1.133,1.133,0,0,1,84.817,35.238Zm-.3,9.5H82.888V37.464H84.52ZM91.346,38.8H90.9a1.446,1.446,0,0,0-1.335.594,2.507,2.507,0,0,0-.445,1.484v3.858H87.488V37.464h1.484V38.8a3.231,3.231,0,0,1,.742-1.187,1.685,1.685,0,0,1,1.187-.445h.445V38.8ZM95.2,35.238a1.014,1.014,0,0,1-1.039,1.039c-.3,0-.445-.148-.742-.3a1.133,1.133,0,0,1-.3-.742c0-.3.148-.445.3-.742a.991.991,0,0,1,1.484,0C95.2,34.644,95.2,34.941,95.2,35.238Zm-.148,9.5H93.423V37.464h1.632Zm9.2,0h-1.632V40.58c0-1.335-.445-1.929-1.484-1.929a1.35,1.35,0,0,0-1.187.594,1.814,1.814,0,0,0-.445,1.335v4.3H97.874V37.612h1.484l.148,1.187a2.873,2.873,0,0,1,2.374-1.335,3.083,3.083,0,0,1,1.781.742,3.37,3.37,0,0,1,.89,2.374Z" transform="translate(3.917 1.709)" fill="#fff"/></svg>