<svg xmlns="http://www.w3.org/2000/svg" width="200.319" height="59.354" viewBox="0 0 200.319 59.354"><path d="M8.419,1H193.9a7.347,7.347,0,0,1,7.419,7.419V52.934a7.347,7.347,0,0,1-7.419,7.419H8.419A7.347,7.347,0,0,1,1,52.934V8.419A7.347,7.347,0,0,1,8.419,1Z" transform="translate(-1 -1)" fill="#6f6f6f"/><path d="M77.216,15.832a5.477,5.477,0,0,0-5.49,5.49,5.575,5.575,0,0,0,5.49,5.49,5.491,5.491,0,0,0,.148-10.98Zm0,8.9A3.169,3.169,0,0,1,74.1,21.471v-.148a3.116,3.116,0,0,1,6.232,0h0a3.292,3.292,0,0,1-3.116,3.413ZM65.2,15.832a5.477,5.477,0,0,0-5.49,5.49,5.575,5.575,0,0,0,5.49,5.49,5.491,5.491,0,0,0,.148-10.98Zm0,8.9a3.169,3.169,0,0,1-3.116-3.264v-.148a3.116,3.116,0,0,1,6.232,0A3.4,3.4,0,0,1,65.2,24.735ZM50.8,17.464v2.374h5.639a5.448,5.448,0,0,1-1.335,2.968,5.283,5.283,0,0,1-4.3,1.632,6.278,6.278,0,0,1-5.935-6.529A6.156,6.156,0,0,1,50.8,11.974a5.828,5.828,0,0,1,4.155,1.632l1.632-1.632A8.172,8.172,0,0,0,50.655,9.6,8.839,8.839,0,0,0,41.9,18.206a8.741,8.741,0,0,0,8.755,8.606,7.424,7.424,0,0,0,5.935-2.374,8.145,8.145,0,0,0,2.077-5.49,5.048,5.048,0,0,0-.148-1.484Zm58.76,1.929a5.089,5.089,0,0,0-9.942,1.632v.3a5.352,5.352,0,0,0,5.342,5.49h.148a5.7,5.7,0,0,0,4.6-2.374l-1.929-1.187a3.315,3.315,0,0,1-2.671,1.484,2.8,2.8,0,0,1-2.671-1.632l7.419-3.116ZM102,21.174a2.993,2.993,0,0,1,2.671-3.264h.148a2.368,2.368,0,0,1,2.077,1.187ZM96.06,26.516h2.374V10.342H96.06Zm-3.858-9.5h0a3.644,3.644,0,0,0-3.116-1.187,5.49,5.49,0,1,0,0,10.98,4.143,4.143,0,0,0,2.968-1.187H92.2v.742c0,2.077-1.187,3.264-2.968,3.264A3.043,3.043,0,0,1,86.415,27.7l-2.077.89a5.361,5.361,0,0,0,4.9,3.264c2.819,0,5.193-1.632,5.193-5.787V16.129H92.054Zm-2.819,7.716a3.169,3.169,0,0,1-3.116-3.264v-.148a3.172,3.172,0,0,1,2.968-3.413h0A3.042,3.042,0,0,1,92.2,21.174v.148a2.968,2.968,0,0,1-2.819,3.413Zm31.606-14.393H115.2V26.516h2.374V20.432h3.413a5.133,5.133,0,0,0,5.342-4.9v-.148a5.257,5.257,0,0,0-5.342-5.045Zm0,7.716h-3.413V12.419h3.413a2.819,2.819,0,0,1,0,5.639Zm14.838-2.226a4.41,4.41,0,0,0-4.3,2.523l2.077.89a2.318,2.318,0,0,1,2.226-1.187,2.23,2.23,0,0,1,2.523,2.077h0v.148a4.877,4.877,0,0,0-2.523-.594c-2.374,0-4.748,1.335-4.748,3.71a3.673,3.673,0,0,0,3.858,3.561h.148a2.987,2.987,0,0,0,3.116-1.632v1.187h2.374V20.284c.3-2.819-1.929-4.452-4.748-4.452Zm-.3,8.9c-.742,0-1.929-.445-1.929-1.335,0-1.187,1.335-1.781,2.523-1.781a5.954,5.954,0,0,1,2.226.445,2.791,2.791,0,0,1-2.819,2.671Zm13.8-8.606L146.511,23.1h-.148l-2.819-6.974h-2.671l4.3,9.793-2.374,5.49h2.523l6.529-15.284H149.33ZM127.518,26.516h2.374V10.342h-2.374Z" transform="translate(18.789 3.161)" fill="#fff"/><path d="M43.139,30.868H42.1V28.048h1.039Zm1.929,6.084V27.9h2.819a4.6,4.6,0,0,1,3.264,1.335,4.964,4.964,0,0,1,0,6.529,3.934,3.934,0,0,1-3.264,1.187Zm1.187-1.187h1.632a4.029,4.029,0,0,0,2.523-.89,3.467,3.467,0,0,0,.3-4.748,3.716,3.716,0,0,0-2.671-1.187H46.4v6.826Zm13.058-6.677H55.158v2.819h3.71v1.039h-3.71v2.819h4.155v1.187H54.119V27.9h5.193Zm1.632,7.864V27.9h1.484l4.452,6.974V27.9h1.187v9.051H66.88l-4.6-7.419v7.419Z" transform="translate(18.886 12.015)" fill="#fff" stroke="#fff" stroke-miterlimit="10" stroke-width="0.2"/><path d="M72.9,33.919V35.7h0l-4.452-6.974H67.11v8.9H68.3V30.21h0l4.6,7.419h1.187V28.577H72.9Zm32.645-5.342V35.7h0l-4.452-6.974H99.754v8.9h1.187V30.21h0l4.6,7.419h1.187V28.577ZM63.7,28.726h1.187v8.9H63.7Zm1.039-2.077a.518.518,0,0,0-.3-.148h-.594c-.148,0-.148.148-.3.148a.518.518,0,0,0-.148.3v.594c0,.148.148.148.148.3a.518.518,0,0,0,.3.148h.594c.148,0,.148-.148.3-.148a.518.518,0,0,0,.148-.3v-.594C64.884,26.8,64.884,26.648,64.735,26.648Zm17.658,3.264a3.5,3.5,0,0,0-1.335-.89,7.448,7.448,0,0,0-1.781-.3H76.013v8.9h3.264a7.448,7.448,0,0,0,1.781-.3,3.673,3.673,0,0,0,2.226-2.226,5.319,5.319,0,0,0,0-3.71A3.079,3.079,0,0,0,82.393,29.913Zm-.148,4.748a2.391,2.391,0,0,1-.594,1.039,2.662,2.662,0,0,1-1.039.742,4.333,4.333,0,0,1-1.335.3H77.2V29.764h2.077a4.333,4.333,0,0,1,1.335.3,2.661,2.661,0,0,1,1.039.742,3.719,3.719,0,0,1,.594,1.039,4.549,4.549,0,0,1,0,2.819Zm3.116-5.935h1.187v8.9H85.361Zm1.187-2.077a.518.518,0,0,0-.3-.148h-.594c-.148,0-.148.148-.3.148a.518.518,0,0,0-.148.3v.594c0,.148.148.148.148.3a.518.518,0,0,0,.3.148h.594c.148,0,.148-.148.3-.148a.518.518,0,0,0,.148-.3v-.594A.518.518,0,0,0,86.548,26.648Zm5.935,6.974a2.109,2.109,0,0,0,.89-.3,2.6,2.6,0,0,0,.742-.594,3.244,3.244,0,0,0,.445-.742,1.882,1.882,0,0,0,.148-.89,2.525,2.525,0,0,0-.148-1.039,1.481,1.481,0,0,0-.594-.742,1.347,1.347,0,0,0-1.039-.445,5.048,5.048,0,0,0-1.484-.148H88.922v8.9h1.187v-3.71H91.3c.148,0,.148.148.3.148l2.374,3.264c.148.148.3.3.445.3h1.039L92.78,34.068C92.78,33.919,92.632,33.771,92.483,33.622ZM91.3,33.029H90.109V29.616h1.335a3.382,3.382,0,0,1,1.632.445,1.23,1.23,0,0,1,.445,1.187,1.338,1.338,0,0,1-.148.742c-.148.148-.3.445-.445.594a1.125,1.125,0,0,1-.594.3,2.2,2.2,0,0,1-1.039.148Zm6.529-6.38a.518.518,0,0,0-.3-.148h-.594c-.148,0-.148.148-.3.148a.518.518,0,0,0-.148.3v.594c0,.148.148.148.148.3a.518.518,0,0,0,.3.148h.594c.148,0,.148-.148.3-.148a.518.518,0,0,0,.148-.3v-.594A.518.518,0,0,0,97.825,26.648Zm-1.187,2.077h1.187v8.9H96.638Z" transform="translate(29.192 11.338)" fill="#fff" stroke="#fff" stroke-miterlimit="10" stroke-width="0.25"/><path d="M13.523,45.42a5.11,5.11,0,0,0,2.968-.594l18.7-10.387L29.7,28.8ZM11.742,10.1A4.746,4.746,0,0,0,11,12.924v28.49a5.036,5.036,0,0,0,.742,2.819L28.213,27.169Zm23.3,9.793L16.342,9.511a3.8,3.8,0,0,0-2.819-.594L29.7,25.388ZM37.116,33.1l5.342-2.968c2.968-1.632,2.968-4.452,0-6.084l-5.342-2.968L31.18,27.169Z" transform="translate(3.838 2.805)" fill="#fff"/></svg>